<svg width="179" height="146" viewBox="0 0 179 146" fill="none" xmlns="http://www.w3.org/2000/svg">
<path d="M93.6387 79.4746C93.2806 80.2233 92.8249 81.1185 92.2715 82.1602C91.7507 83.1693 91.1484 84.2272 90.4648 85.334C89.7812 86.4408 89.0163 87.5475 88.1699 88.6543C87.3236 89.7285 86.3958 90.7051 85.3867 91.584C84.4102 92.4303 83.3522 93.1139 82.2129 93.6348C81.1061 94.1882 79.918 94.4648 78.6484 94.4648C76.6953 94.4648 75.0189 93.8626 73.6191 92.6582C72.2194 91.4538 71.0312 89.875 70.0547 87.9219C69.0781 85.9688 68.2806 83.7552 67.6621 81.2812C67.0762 78.7747 66.6204 76.2357 66.2949 73.6641C65.9694 71.0599 65.7415 68.5371 65.6113 66.0957C65.5137 63.6543 65.4648 61.4896 65.4648 59.6016C65.4648 56.8672 65.5462 54.0352 65.709 51.1055C65.9043 48.1758 66.1973 45.3112 66.5879 42.5117C66.9785 39.7122 67.4668 37.0592 68.0527 34.5527C68.6712 32.0462 69.3874 29.849 70.2012 27.9609C71.0475 26.0729 72.0078 24.5755 73.082 23.4688C74.1562 22.362 75.377 21.8086 76.7441 21.8086C77.8184 21.8086 78.7786 22.069 79.625 22.5898C80.5039 23.0781 81.2363 23.8919 81.8223 25.0312C82.4082 26.1706 82.8639 27.6517 83.1895 29.4746C83.515 31.2975 83.6777 33.5273 83.6777 36.1641C83.6777 39.4193 83.3359 42.7884 82.6523 46.2715C81.9688 49.722 81.041 53.2051 79.8691 56.7207C78.6973 60.2363 77.3138 63.752 75.7188 67.2676C74.1237 70.7507 72.4147 74.1523 70.5918 77.4727C71.4056 81.6068 72.4961 84.862 73.8633 87.2383C75.2305 89.582 76.8743 90.7539 78.7949 90.7539C80.097 90.7539 81.3503 90.2493 82.5547 89.2402C83.7591 88.1986 84.8659 86.9779 85.875 85.5781C86.8841 84.1784 87.763 82.7624 88.5117 81.3301C89.293 79.8652 89.8952 78.6934 90.3184 77.8145C90.4811 77.4889 90.709 77.2448 91.002 77.082C91.2949 76.8867 91.6204 76.7891 91.9785 76.7891C92.5319 76.7891 92.9714 76.9844 93.2969 77.375C93.6549 77.7656 93.834 78.2051 93.834 78.6934C93.834 78.8887 93.7689 79.1491 93.6387 79.4746ZM69.1758 59.8457C69.1758 61.929 69.2246 63.931 69.3223 65.8516C69.4199 67.7721 69.5501 69.6113 69.7129 71.3691C71.0801 68.7324 72.3822 65.9329 73.6191 62.9707C74.8561 59.9759 75.9466 56.9648 76.8906 53.9375C77.8346 50.8776 78.5833 47.8503 79.1367 44.8555C79.7227 41.8281 80.0156 38.9473 80.0156 36.2129C80.0156 32.3717 79.7064 29.6211 79.0879 27.9609C78.4694 26.3008 77.6393 25.4707 76.5977 25.4707C75.9141 25.4707 75.2467 25.9427 74.5957 26.8867C73.9772 27.8307 73.3913 29.1165 72.8379 30.7441C72.2845 32.3717 71.7799 34.2923 71.3242 36.5059C70.8685 38.7194 70.4779 41.0957 70.1523 43.6348C69.8594 46.1738 69.6152 48.8268 69.4199 51.5938C69.2572 54.3607 69.1758 57.1113 69.1758 59.8457ZM96.2266 87.6289C96.9102 88.5729 97.7891 89.3379 98.8633 89.9238C99.9375 90.4772 101.256 90.7539 102.818 90.7539C104.413 90.7539 105.862 90.3796 107.164 89.6309C108.466 88.8496 109.654 87.8405 110.729 86.6035C111.803 85.3665 112.763 83.9831 113.609 82.4531C114.456 80.9232 115.221 79.3932 115.904 77.8633C116.067 77.5052 116.295 77.2448 116.588 77.082C116.881 76.8867 117.206 76.7891 117.564 76.7891C118.118 76.7891 118.557 76.9844 118.883 77.375C119.241 77.7656 119.42 78.1888 119.42 78.6445C119.42 78.8073 119.404 78.9538 119.371 79.084C119.339 79.1816 119.29 79.2956 119.225 79.4258C116.979 84.3737 114.521 88.1009 111.852 90.6074C109.215 93.1139 106.22 94.3997 102.867 94.4648C100.719 94.4648 98.8633 94.0417 97.3008 93.1953C95.7383 92.3815 94.4525 91.3236 93.4434 90.0215C92.4342 88.6868 91.6855 87.1895 91.1973 85.5293C90.709 83.8691 90.4648 82.209 90.4648 80.5488C90.4648 78.8887 90.6602 77.3587 91.0508 75.959C91.474 74.5592 92.0599 73.3385 92.8086 72.2969C93.5898 71.2552 94.5013 70.4414 95.543 69.8555C96.6172 69.2695 97.7891 68.9766 99.0586 68.9766C99.8073 68.9766 100.54 69.1393 101.256 69.4648C102.005 69.7578 102.672 70.1973 103.258 70.7832C103.844 71.3366 104.316 72.0202 104.674 72.834C105.032 73.6478 105.211 74.5755 105.211 75.6172C105.211 76.9518 104.983 78.2051 104.527 79.377C104.072 80.5488 103.437 81.6393 102.623 82.6484C101.842 83.6576 100.898 84.5853 99.791 85.4316C98.6842 86.278 97.4961 87.0104 96.2266 87.6289ZM94.7617 84.4551C95.7708 84.0319 96.6823 83.4948 97.4961 82.8438C98.3424 82.1927 99.0586 81.4766 99.6445 80.6953C100.23 79.9141 100.686 79.1003 101.012 78.2539C101.337 77.375 101.5 76.4961 101.5 75.6172C101.5 74.6406 101.256 73.9082 100.768 73.4199C100.279 72.8991 99.7096 72.6387 99.0586 72.6387C98.1797 72.6387 97.431 72.8828 96.8125 73.3711C96.194 73.8594 95.6895 74.4941 95.2988 75.2754C94.9082 76.0566 94.6152 76.9355 94.4199 77.9121C94.2572 78.8561 94.1758 79.8001 94.1758 80.7441C94.1758 81.3301 94.2246 81.9486 94.3223 82.5996C94.4525 83.2507 94.599 83.8691 94.7617 84.4551ZM135.729 77.6191C135.24 79.8978 134.54 82.0299 133.629 84.0156C132.717 85.9688 131.741 87.6777 130.699 89.1426C129.69 90.6074 128.665 91.763 127.623 92.6094C126.581 93.4557 125.686 93.9115 124.938 93.9766C124.091 93.9766 123.147 93.5534 122.105 92.707C121.096 91.8607 120.12 90.6888 119.176 89.1914C118.264 87.6615 117.499 85.8548 116.881 83.7715C116.262 81.6882 115.953 79.4258 115.953 76.9844C115.953 74.8359 116.132 73.2083 116.49 72.1016C116.881 70.9948 117.125 70.36 117.223 70.1973C117.385 69.9043 117.597 69.6764 117.857 69.5137C118.15 69.3509 118.476 69.2695 118.834 69.2695C119.387 69.2695 119.827 69.4648 120.152 69.8555C120.478 70.2135 120.641 70.6204 120.641 71.0762C120.641 71.4017 120.576 71.6784 120.445 71.9062C120.413 71.9714 120.266 72.4108 120.006 73.2246C119.745 74.0384 119.615 75.2591 119.615 76.8867C119.615 78.8073 119.811 80.5814 120.201 82.209C120.592 83.8366 121.064 85.2363 121.617 86.4082C122.171 87.5801 122.74 88.5078 123.326 89.1914C123.945 89.8424 124.449 90.168 124.84 90.168C125.1 90.168 125.475 89.9238 125.963 89.4355C126.484 88.9473 127.021 88.2799 127.574 87.4336C128.16 86.5872 128.746 85.5781 129.332 84.4062C129.951 83.2344 130.504 81.9648 130.992 80.5977C131.513 79.1979 131.92 77.7331 132.213 76.2031C132.538 74.6406 132.701 73.0618 132.701 71.4668C132.701 71.1413 132.685 70.832 132.652 70.5391C132.652 70.2135 132.652 69.888 132.652 69.5625C132.652 69.0091 132.815 68.5534 133.141 68.1953C133.499 67.8047 133.954 67.6094 134.508 67.6094C134.931 67.6094 135.305 67.7396 135.631 68C135.989 68.2604 136.217 68.6185 136.314 69.0742C136.314 69.0417 136.38 69.3021 136.51 69.8555C136.64 70.4089 136.852 71.125 137.145 72.0039C137.47 72.8503 137.861 73.778 138.316 74.7871C138.805 75.7962 139.374 76.7402 140.025 77.6191C140.709 78.4655 141.49 79.1816 142.369 79.7676C143.248 80.3535 144.257 80.6465 145.396 80.6465C146.015 80.6465 146.552 80.5163 147.008 80.2559C147.464 79.9954 147.838 79.7025 148.131 79.377C148.424 79.0514 148.635 78.7422 148.766 78.4492C148.928 78.1562 149.01 77.9935 149.01 77.9609C149.14 77.6029 149.352 77.3262 149.645 77.1309C149.97 76.903 150.328 76.7891 150.719 76.7891C151.24 76.7891 151.679 76.9844 152.037 77.375C152.395 77.7331 152.574 78.1562 152.574 78.6445C152.574 78.8724 152.525 79.1003 152.428 79.3281C152.232 79.7839 151.939 80.3047 151.549 80.8906C151.191 81.4766 150.719 82.0299 150.133 82.5508C149.547 83.0716 148.847 83.5111 148.033 83.8691C147.252 84.1947 146.373 84.3574 145.396 84.3574C144.257 84.3574 143.199 84.1621 142.223 83.7715C141.246 83.3483 140.351 82.8275 139.537 82.209C138.756 81.5579 138.04 80.8418 137.389 80.0605C136.738 79.2467 136.184 78.4329 135.729 77.6191ZM154.918 87.6289C155.602 88.5729 156.48 89.3379 157.555 89.9238C158.629 90.4772 159.947 90.7539 161.51 90.7539C163.105 90.7539 164.553 90.3796 165.855 89.6309C167.158 88.8496 168.346 87.8405 169.42 86.6035C170.494 85.3665 171.454 83.9831 172.301 82.4531C173.147 80.9232 173.912 79.3932 174.596 77.8633C174.758 77.5052 174.986 77.2448 175.279 77.082C175.572 76.8867 175.898 76.7891 176.256 76.7891C176.809 76.7891 177.249 76.9844 177.574 77.375C177.932 77.7656 178.111 78.1888 178.111 78.6445C178.111 78.8073 178.095 78.9538 178.062 79.084C178.03 79.1816 177.981 79.2956 177.916 79.4258C175.67 84.3737 173.212 88.1009 170.543 90.6074C167.906 93.1139 164.911 94.3997 161.559 94.4648C159.41 94.4648 157.555 94.0417 155.992 93.1953C154.43 92.3815 153.144 91.3236 152.135 90.0215C151.126 88.6868 150.377 87.1895 149.889 85.5293C149.4 83.8691 149.156 82.209 149.156 80.5488C149.156 78.8887 149.352 77.3587 149.742 75.959C150.165 74.5592 150.751 73.3385 151.5 72.2969C152.281 71.2552 153.193 70.4414 154.234 69.8555C155.309 69.2695 156.48 68.9766 157.75 68.9766C158.499 68.9766 159.231 69.1393 159.947 69.4648C160.696 69.7578 161.363 70.1973 161.949 70.7832C162.535 71.3366 163.007 72.0202 163.365 72.834C163.723 73.6478 163.902 74.5755 163.902 75.6172C163.902 76.9518 163.674 78.2051 163.219 79.377C162.763 80.5488 162.128 81.6393 161.314 82.6484C160.533 83.6576 159.589 84.5853 158.482 85.4316C157.376 86.278 156.188 87.0104 154.918 87.6289ZM153.453 84.4551C154.462 84.0319 155.374 83.4948 156.188 82.8438C157.034 82.1927 157.75 81.4766 158.336 80.6953C158.922 79.9141 159.378 79.1003 159.703 78.2539C160.029 77.375 160.191 76.4961 160.191 75.6172C160.191 74.6406 159.947 73.9082 159.459 73.4199C158.971 72.8991 158.401 72.6387 157.75 72.6387C156.871 72.6387 156.122 72.8828 155.504 73.3711C154.885 73.8594 154.381 74.4941 153.99 75.2754C153.6 76.0566 153.307 76.9355 153.111 77.9121C152.949 78.8561 152.867 79.8001 152.867 80.7441C152.867 81.3301 152.916 81.9486 153.014 82.5996C153.144 83.2507 153.29 83.8691 153.453 84.4551Z" fill="#666666"/>
<path d="M8.32 75.6L8 70.56L32.16 67.28C31.9467 64.3467 30.9333 61.9467 29.12 60.08C27.3067 58.16 24.8 57.2 21.6 57.2C18.2933 57.2 15.5467 58.4 13.36 60.8C11.2267 63.1467 10.16 66.5333 10.16 70.96V72.72C10.5333 76.9867 11.92 80.24 14.32 82.48C16.7733 84.6667 20.1067 85.76 24.32 85.76C26.56 85.76 28.5867 85.3867 30.4 84.64C32.2133 83.8933 33.6533 83.0933 34.72 82.24C35.3067 82.6133 35.76 83.0667 36.08 83.6C36.4533 84.08 36.64 84.64 36.64 85.28C36.64 86.2933 36.0533 87.2533 34.88 88.16C33.76 89.0133 32.24 89.7067 30.32 90.24C28.4533 90.7733 26.3467 91.04 24 91.04C19.8933 91.04 16.32 90.2933 13.28 88.8C10.2933 87.3067 7.97333 85.0933 6.32 82.16C4.72 79.1733 3.92 75.5467 3.92 71.28C3.92 68.24 4.34667 65.5467 5.2 63.2C6.10667 60.8 7.33333 58.7733 8.88 57.12C10.48 55.4667 12.3733 54.2133 14.56 53.36C16.7467 52.4533 19.12 52 21.68 52C24.9333 52 27.7867 52.6933 30.24 54.08C32.7467 55.4667 34.6933 57.4133 36.08 59.92C37.52 62.3733 38.24 65.2 38.24 68.4C38.24 69.5733 37.9733 70.4267 37.44 70.96C36.9067 71.44 36.16 71.7333 35.2 71.84L8.32 75.6Z" fill="#60435F"/>
</svg>
